<mxfile host="app.diagrams.net" modified="2024-04-30T07:51:11.529Z" agent="Mozilla/5.0 (Macintosh; Intel Mac OS X 10_15_7) AppleWebKit/537.36 (KHTML, like Gecko) Chrome/124.0.0.0 Safari/537.36" version="24.3.1" etag="LjgSmMpTN9OW65ZQt2sg" type="github">
  <diagram name="Trang-1" id="J5ofeO4W4WTgCNZOi133">
    <mxGraphModel>
      <root>
        <mxCell id="0" />
        <mxCell id="1" parent="0" />
      </root>
    </mxGraphModel>
  </diagram>
</mxfile>
